<svg xmlns="http://www.w3.org/2000/svg" viewBox="0 0 32 32" fill="none">
  <rect width="32" height="32" rx="8" fill="#2563eb"/>
  <path d="M16 20a1.5 1.5 0 1 0 0 3 1.5 1.5 0 0 0 0-3Zm-5-2.5c1.65 0 3.15.68 4.28 1.73l1.05-1.05A8.2 8.2 0 0 0 11 15.5a8.2 8.2 0 0 0-5.33 1.68l1.05 1.05A6.7 6.7 0 0 1 11 17.5Zm10 0c1.1 0 2.9-.08 4.28-1.28l1.05 1.05A8.2 8.2 0 0 1 21 19.5a8.2 8.2 0 0 1-4.55-1.35l1.05-1.05A6.7 6.7 0 0 0 21 17.5ZM16 11c3.2 0 6.05 1.3 8.15 3.4l1.05-1.05A10.7 10.7 0 0 0 16 9.5a10.7 10.7 0 0 0-7.2 2.85l1.05 1.05A8.2 8.2 0 0 1 16 11Z" fill="#fff"/>
</svg>
